<?xml version="1.0" standalone="no"?>
<!DOCTYPE svg PUBLIC "-//W3C//DTD SVG 20010904//EN"
 "http://www.w3.org/TR/2001/REC-SVG-20010904/DTD/svg10.dtd">
<svg version="1.0" xmlns="http://www.w3.org/2000/svg"
 width="128.000000pt" height="128.000000pt" viewBox="0 0 128.000000 128.000000"
 preserveAspectRatio="xMidYMid meet">

<g transform="translate(0.000000,128.000000) scale(0.100000,-0.100000)"
fill="#000000" stroke="none">
<path d="M501 1144 c-65 -17 -138 -56 -190 -101 -22 -19 -46 -31 -54 -27 -10
4 -16 -4 -19 -25 -5 -34 -2 -36 37 -21 22 8 25 13 16 24 -9 11 -2 21 38 50
162 119 362 138 538 51 179 -88 292 -281 281 -477 -2 -38 0 -68 4 -68 14 0 9
162 -7 219 -48 182 -207 339 -385 380 -64 15 -195 12 -259 -5z"/>
<path d="M566 865 c-51 -65 -73 -85 -92 -85 -20 0 -24 -5 -24 -30 0 -21 -14
-49 -41 -86 -39 -51 -41 -56 -25 -72 12 -14 16 -39 16 -100 l0 -82 225 0 225
0 0 95 c0 84 2 95 16 93 10 -2 19 2 21 8 3 8 -209 299 -246 337 -4 4 -38 -31
-75 -78z m173 -111 l102 -136 -3 -97 -3 -96 -212 -3 -213 -2 0 98 0 98 108
137 c59 75 110 137 114 137 3 0 52 -61 107 -136z m-259 7 c0 -6 -4 -13 -10
-16 -5 -3 -10 1 -10 9 0 9 5 16 10 16 6 0 10 -4 10 -9z"/>
<path d="M640 679 c-37 -11 -72 -28 -82 -40 -17 -20 -26 -95 -10 -87 4 2 30
14 57 27 28 13 59 31 70 40 14 11 13 8 -4 -11 -13 -15 -36 -30 -52 -33 -29 -7
-79 -57 -79 -78 0 -7 5 -4 11 6 8 13 14 15 29 7 32 -17 77 -11 106 14 24 20
28 32 32 90 3 37 1 71 -4 75 -5 4 -38 -1 -74 -10z"/>
<path d="M167 863 c-4 -3 -7 -11 -7 -17 0 -6 5 -5 12 2 6 6 9 14 7 17 -3 3 -9
2 -12 -2z"/>
<path d="M151 814 c0 -11 3 -14 6 -6 3 7 2 16 -1 19 -3 4 -6 -2 -5 -13z"/>
<path d="M137 783 c-4 -3 -7 -16 -6 -27 0 -19 1 -19 10 3 10 24 8 36 -4 24z"/>
<path d="M120 647 c0 -157 43 -260 155 -373 105 -106 219 -154 365 -154 123 0
242 42 327 115 24 20 48 33 56 29 10 -4 16 4 19 25 5 34 2 36 -37 21 -21 -8
-25 -13 -16 -23 8 -10 -1 -22 -37 -49 -164 -124 -375 -142 -553 -47 -74 40
-168 134 -208 208 -41 77 -64 179 -59 264 2 37 0 67 -4 67 -4 0 -8 -37 -8 -83z"/>
<path d="M1135 520 c-4 -12 -5 -24 -2 -27 3 -2 8 5 12 17 4 12 5 24 2 27 -3 2
-8 -5 -12 -17z"/>
<path d="M1121 464 c0 -11 3 -14 6 -6 3 7 2 16 -1 19 -3 4 -6 -2 -5 -13z"/>
<path d="M1105 430 c-3 -5 -1 -10 4 -10 6 0 11 5 11 10 0 6 -2 10 -4 10 -3 0
-8 -4 -11 -10z"/>
</g>
</svg>
